<svg width="156" height="33" viewBox="0 0 156 33" fill="none" xmlns="http://www.w3.org/2000/svg">
<path d="M21.6711 13.5622C21.3748 13.5622 21.1697 13.1426 20.6912 12.4799C19.4151 10.5803 17.5009 9.74096 15.2222 9.74096C11.1432 9.74096 8.47701 13.3414 8.04405 13.3414C7.67945 13.3414 7.58829 12.2149 7.38321 11.1767C7.15533 10.2269 6.72236 9.93976 6.03873 9.93976C5.28674 9.93976 4.69426 10.4257 2.80288 11.2209C1.32168 11.8394 0.0911507 12.0161 0.0911507 12.988C0.0911507 13.5622 0.569692 13.8494 1.00266 14.0482C1.73186 14.3353 2.41549 14.755 2.41549 15.9036V26.9257C2.41549 28.0522 2.25598 29.002 1.18496 29.9739C0.774781 30.3273 0 30.7028 0 31.5422C0 32.0944 0.319027 32.5803 1.36726 32.5803C2.7801 32.5803 3.89669 32.4699 5.19559 32.4699C6.31219 32.4699 7.22369 32.5803 8.40865 32.5803C9.59361 32.5803 9.95821 32.1165 9.95821 31.4759C9.95821 30.6145 9.25179 30.4819 8.63653 29.9076C7.99847 29.3333 7.74781 28.7149 7.74781 27.1908V18.0683C7.74781 15.8373 10.3 13.4739 12.4876 13.4739C15.131 13.4739 16.7034 15.5502 16.7034 19.9016C16.7034 24.2309 16.2932 28.3614 15.883 29.6647C15.7235 30.0843 15.3817 30.8353 15.3817 31.5422C15.3817 32.0944 15.6779 32.5803 16.5438 32.5803C17.6832 32.5803 18.1846 32.4699 19.5746 32.4699C20.7368 32.4699 21.352 32.5803 22.3775 32.5803C23.5852 32.5803 24.0638 32.1386 24.0638 31.4759C24.0638 30.6365 23.4029 30.5261 22.6509 29.9739C21.9901 29.4659 21.785 28.5823 21.785 27.7209C21.785 26.2631 22.0357 22.5301 22.0357 18.4659C22.0357 15.3072 24.679 13.4739 26.6844 13.4739C29.3277 13.4739 30.9684 15.5502 30.9684 19.9016C30.9684 24.2309 30.4443 28.3614 30.0114 29.6647C29.8746 30.0843 29.5328 30.8353 29.5328 31.5422C29.5328 32.0944 29.8291 32.5803 30.6722 32.5803C31.8344 32.5803 32.3357 32.4699 33.7258 32.4699C34.8651 32.4699 35.7083 32.5803 36.7109 32.5803C37.9187 32.5803 38.3972 32.1386 38.3972 31.4759C38.3972 30.6365 37.7136 30.5261 36.916 29.9739C36.2096 29.488 35.8906 28.5823 35.8906 27.7209C35.8906 26.2631 36.4831 22.4859 36.4831 18.4217C36.4831 12.745 34.0448 9.74096 29.4417 9.74096C24.7474 9.74096 22.1952 13.5622 21.6711 13.5622Z" fill="#353535"/>
<path d="M55.1921 23.8333C55.1921 27.2129 53.0273 29.4659 49.9281 29.4659C47.9684 29.4659 46.5556 28.4056 46.5556 26.5723C46.5556 25.004 47.6266 23.4578 50.0421 22.6847C51.341 22.2871 52.8677 22.1104 54.7591 22.1104C55.0554 22.1104 55.1921 22.508 55.1921 23.8333ZM47.6038 20.6084C43.5704 21.7791 40.9726 24.0321 40.9726 27.5C40.9726 31.0341 43.9806 33 47.8317 33C50.4295 33 52.8905 31.9398 54.3717 30.5482C54.554 30.3715 54.7363 30.1064 54.8959 30.1064C55.0554 30.1064 55.1921 30.2831 55.2832 30.4819C55.9669 32.0944 57.243 32.8012 59.1799 32.8012C61.4587 32.8012 63.2817 31.255 63.2817 29.3554C63.2817 28.8474 63.0538 28.6044 62.8715 28.6044C62.5297 28.6044 62.3018 28.7811 61.7549 28.7811C60.7523 28.7811 60.4333 27.8534 60.4333 26.8815C60.4333 24.8715 60.6839 21.4699 60.6839 18.5984C60.6839 12.8775 56.8784 9.71887 50.9992 9.71887C45.4162 9.71887 42.1803 12.4799 42.1803 15.0201C42.1803 16.9639 43.5932 17.8474 44.8693 17.8474C46.1226 17.8474 46.5784 17.1406 46.8518 16.0582C47.3531 14.0261 48.4925 12.2149 50.9308 12.2149C53.9388 12.2149 55.1693 14.512 55.1693 17.3614C55.1693 18.753 54.9414 19.1064 54.6908 19.2831C54.1439 19.6586 50.5662 19.7912 47.6038 20.6084Z" fill="#353535"/>
<path d="M72.8205 14.247C72.8433 13.9157 73.0484 13.8715 73.1851 13.8715C73.7776 13.8715 77.7654 14.0924 78.244 14.0924C78.6086 14.0924 78.882 13.9598 79.0187 13.8273C79.4061 13.4297 79.8391 12.4578 79.8391 11.7068C79.8391 10.6687 79.2694 10.4257 78.3807 10.4257C77.8566 10.4257 73.3902 10.6466 73.0028 10.6466C72.8205 10.6466 72.7977 10.5803 72.7977 10.4699C72.7977 10.3153 73.0256 6.89156 73.0256 6.03012C73.0256 4.90361 72.547 4.30723 71.8178 4.30723C70.5189 4.30723 70.3822 6.69277 68.6504 8.57028C67.6477 9.63052 66.2576 10.3815 64.8904 10.9779C64.1156 11.3313 63.8649 11.9056 63.8649 12.5683C63.8649 13.4297 64.8448 13.5402 66.5083 13.739C67.1919 13.8273 67.397 14.2249 67.397 15.0643C67.397 17.251 67.1008 22.9719 67.1008 24.9819C67.1008 30.261 69.1973 32.9116 73.299 32.9116C77.1729 32.9116 79.2466 30.6807 80.0898 29.1125C80.4316 28.5382 80.5911 27.9639 80.5911 27.5442C80.5911 26.8374 80.2493 26.6386 79.9758 26.6386C79.6796 26.6386 79.4973 26.8153 79.1555 27.1687C78.5174 27.8092 77.4236 28.6928 75.988 28.6928C73.1623 28.6928 72.6154 26.0422 72.6154 23.5462C72.6154 21.2932 72.7521 15.0422 72.8205 14.247Z" fill="#353535"/>
<path d="M82.0452 21.8012C82.0452 28.2731 86.5572 32.9558 93.12 32.9558C99.3866 32.9558 102.873 28.3614 102.873 25.1145C102.873 24.4297 102.736 23.8554 102.212 23.8554C101.916 23.8554 101.643 24.1647 101.438 24.4297C100.617 25.7108 98.9309 28.1847 94.9886 28.1847C90.1804 28.1847 87.4231 24.4076 87.4231 19.5924C87.4231 15.4398 89.6335 12.5462 92.5503 12.5462C94.9658 12.5462 96.1508 14.6446 96.6521 16.8976C96.9712 18.1787 97.0395 18.753 98.1105 18.753C100.025 18.753 101.665 17.5161 101.665 15.3956C101.665 12.2369 98.2928 9.74096 93.6442 9.74096C86.4205 9.74096 82.0452 15.3514 82.0452 21.8012Z" fill="#353535"/>
<path d="M107.367 26.9257C107.367 28.0522 107.184 29.002 106.068 29.9739C105.635 30.3273 104.837 30.7028 104.837 31.5422C104.837 32.0944 105.156 32.5803 106.25 32.5803C108.141 32.5803 108.734 32.4699 110.147 32.4699C111.4 32.4699 112.312 32.5803 113.542 32.5803C114.773 32.5803 115.137 32.1165 115.137 31.4759C115.137 30.6145 114.385 30.4819 113.724 29.9076C113.041 29.3333 112.767 28.7149 112.767 27.1908V18.0683C112.767 15.8373 115.479 13.4739 117.963 13.4739C120.857 13.4739 122.589 15.5502 122.589 19.9016C122.589 24.2309 122.019 28.3614 121.586 29.6647C121.449 30.0843 121.062 30.8353 121.062 31.5422C121.062 32.0944 121.358 32.5803 122.247 32.5803C123.386 32.5803 124.024 32.4699 125.414 32.4699C126.691 32.4699 127.465 32.5803 128.491 32.5803C129.744 32.5803 130.2 32.1386 130.2 31.4759C130.2 30.6365 129.493 30.504 128.65 29.9739C127.944 29.4659 127.579 28.5823 127.579 27.7209C127.579 26.2631 128.217 22.4859 128.217 18.4217C128.217 12.745 125.574 9.74096 120.766 9.74096C116.026 9.74096 113.36 13.5402 112.904 13.5402C112.722 13.5402 112.562 13.3855 112.562 12.6787C112.562 6.11847 112.972 2.42972 112.972 1.34739C112.972 0.419677 112.494 0 111.673 0C110.785 0 109.691 0.751002 107.549 1.56827C106.068 2.14257 104.906 2.34136 104.906 3.26908C104.906 3.7992 105.361 4.06426 105.84 4.30723C106.637 4.59438 107.367 5.10241 107.367 6.11847V26.9257Z" fill="#353535"/>
<path d="M147.01 23.8333C147.01 27.2129 144.846 29.4659 141.746 29.4659C139.787 29.4659 138.374 28.4056 138.374 26.5723C138.374 25.004 139.445 23.4578 141.86 22.6847C143.159 22.2871 144.686 22.1104 146.577 22.1104C146.874 22.1104 147.01 22.508 147.01 23.8333ZM139.422 20.6084C135.389 21.7791 132.791 24.0321 132.791 27.5C132.791 31.0341 135.799 33 139.65 33C142.248 33 144.709 31.9398 146.19 30.5482C146.372 30.3715 146.555 30.1064 146.714 30.1064C146.874 30.1064 147.01 30.2831 147.102 30.4819C147.785 32.0944 149.061 32.8012 150.998 32.8012C153.277 32.8012 155.1 31.255 155.1 29.3554C155.1 28.8474 154.872 28.6044 154.69 28.6044C154.348 28.6044 154.12 28.7811 153.573 28.7811C152.571 28.7811 152.252 27.8534 152.252 26.8815C152.252 24.8715 152.502 21.4699 152.502 18.5984C152.502 12.8775 148.697 9.71887 142.817 9.71887C137.234 9.71887 133.999 12.4799 133.999 15.0201C133.999 16.9639 135.411 17.8474 136.688 17.8474C137.941 17.8474 138.397 17.1406 138.67 16.0582C139.171 14.0261 140.311 12.2149 142.749 12.2149C145.757 12.2149 146.988 14.512 146.988 17.3614C146.988 18.753 146.76 19.1064 146.509 19.2831C145.962 19.6586 142.384 19.7912 139.422 20.6084Z" fill="#353535"/>
</svg>
