<svg width="27" height="32" viewBox="0 0 27 32" fill="none" xmlns="http://www.w3.org/2000/svg">
<path d="M25.2547 11.8598C23.9382 12.7748 23.0438 13.6931 22.5706 14.6157C22.0973 15.5384 21.8601 16.5382 21.8601 17.6132C21.8601 18.464 22.0004 19.242 22.2811 19.9481C22.5618 20.6542 22.959 21.3244 23.4725 21.9587C23.9861 22.5931 24.8445 23.223 26.0489 23.8486C25.5833 25.213 24.8608 26.6046 23.8827 28.0255C22.9035 29.4454 22.0167 30.4529 21.2225 31.047C20.4282 31.641 19.6699 31.9381 18.9475 31.9381C18.3697 31.9381 17.5907 31.7542 16.6126 31.3843L16.1556 31.2156L15.4092 30.9023C14.8793 30.7423 14.294 30.6618 13.6521 30.6618C13.0101 30.6618 12.2561 30.8065 11.4369 31.0948L10.8591 31.3114L10.1367 31.6008C9.55894 31.826 8.9812 31.9381 8.40347 31.9381C7.1838 31.9381 5.876 31.084 4.47898 29.3747C3.08306 27.6654 2.02768 25.8277 1.31285 23.8617C0.598021 21.8956 0.24115 19.91 0.24115 17.9037C0.24115 15.3197 0.975562 13.1697 2.44439 11.4518C3.91321 9.73486 5.90646 8.87642 8.42631 8.87642C9.34134 8.87642 10.1998 9.04506 11.0027 9.38235L11.5565 9.59886L12.1343 9.83931C12.6478 10.0482 13.0569 10.1527 13.3616 10.1527C13.8109 10.1527 14.2603 10.0645 14.7096 9.88827L15.4799 9.59886L16.0337 9.38235C16.9324 9.04506 17.9269 8.87642 19.0193 8.87642C21.6033 8.87642 23.6814 9.87195 25.2547 11.8619V11.8598ZM19.14 0.387695C19.1716 0.741301 19.1879 1.01331 19.1879 1.20589C19.1879 2.20142 18.8985 3.22851 18.3208 4.28715C17.743 5.3458 16.9879 6.16943 16.0577 6.75478C15.1263 7.34122 14.0992 7.6339 12.9764 7.6339C12.9285 7.24874 12.9046 6.96803 12.9046 6.79177C12.9046 5.94094 13.157 5.04659 13.6629 4.10763C14.1689 3.16867 14.8543 2.37007 15.7215 1.71182C16.5886 1.05356 17.5668 0.636852 18.658 0.459505C18.7549 0.444273 18.9148 0.419248 19.14 0.387695Z" fill="#333333"/>
</svg>
